<?xml version="1.0" encoding="utf-8"?>
<!-- Generator: Adobe Illustrator 20.0.0, SVG Export Plug-In . SVG Version: 6.00 Build 0)  -->
<svg version="1.1" id="Layer_1" xmlns="http://www.w3.org/2000/svg" xmlns:xlink="http://www.w3.org/1999/xlink" x="0px" y="0px"
	 viewBox="0 0 175.6 175.6" style="enable-background:new 0 0 175.6 175.6;" xml:space="preserve">
<style type="text/css">
	.st0{fill:#414042;}
	.st1{fill:#64B0C4;}
	.st2{fill:#1076A3;}
	.st3{fill:#4D8791;}
	.st4{fill:#008A96;}
	.st5{fill:none;stroke:#FFFFFF;stroke-miterlimit:10;}
	.st6{fill:#FFFFFF;}
</style>
<g>
	<rect id="XMLID_125_" class="st0" width="175.6" height="175.6"/>
</g>
<polygon class="st1" points="91.3,56.2 91,55.2 90.4,53 90.3,51.9 90.8,51.4 90.1,49.6 89.3,49.6 88.1,46.7 98.7,46.7 102,51.1 
	101.9,56.2 "/>
<path class="st1" d="M90.7,61.3"/>
<polygon class="st2" points="92.4,58.7 90.9,61.1 90.9,62.1 90.7,62.6 90.9,63.4 90.6,64.1 90.9,64.9 91.3,65.5 91.3,66.4 
	90.4,67.4 93.1,68.5 102.8,67.4 102.8,63.9 101,62.3 100.5,59.4 101.9,57 91.4,57 91.7,58 92.2,58.2 "/>
<polyline class="st3" points="88.9,68.3 90,68.2 93.1,69.4 102.8,68.2 102.9,72.6 89.1,80.4 80.5,75.4 88.1,70.4 88.7,68.6 "/>
<path class="st4" d="M85.6,68.4c0,0,0,0.1,0,0.1c0.2,0.5,0.4,0.7,0.8,0.8c0.1,0,0.9,0.4,1,0.4c-0.2,0.1-7.5,5-7.5,5l-3.7-3.3
	l0.3-0.4l0.7,0.5l0.8-0.8l-0.8-0.9l-1.2,0l-0.7-3.9l-0.2-2.3l-0.6-2.8l-1.3-1.7L73,57.4v-1.2l-0.3-0.4l0.7-1.7l-0.3-0.6l0.2-0.3
	l1,0.6h0.3l1,0.9l1.3,0.3l1.6,1.3h2.1l1.9,0.6l1.4,0.3L85,57l1,1.3h0.9v-0.7l0.5-0.4l0.4,0.3v0.8l0.7,0.9l0.1,0.9l-0.7,0.8l-0.1,0.9
	l-0.3,0.2h-0.8l-0.1,0.6c-0.4,0.4-1,0.7-1.1,1.2c0,0,0,0,0,0.1c0,0,0,0,0,0c0.1,0,0.2,0,0.3,0c0.2-0.1,0.4-0.4,0.6-0.6
	c0.3-0.2,0.6-0.4,0.8-0.7c0.5-0.6,0.9-1.1,1.4-1.6c0.2-0.2,0.2-0.2,0.2-0.5c0-0.1,0.1-0.2,0.2-0.3c0.5-0.2,0.6,0.6,0.6,0.8
	c0,0.3,0,0.7,0,1c-0.2,0-0.5,0.1-0.6,0.4s-0.1,0.5-0.1,0.7c0,0.2,0.1,0.5,0.3,0.6c0,0.3,0,0.5,0.1,0.8l0,0.5
	c-0.3,0.3-0.4,0.4-0.5,0.7c0,0.1-0.2,1.7-0.2,1.7c-0.2,0-0.5,0-0.6,0.2c-0.1,0.1-0.1,0.2-0.1,0.2c-0.2,0.3-1,0.5-1.2,0.1
	c-0.1-0.1-0.1-0.3-0.1-0.4c-0.1-0.2-0.4-0.3-0.5-0.2c-0.1,0.1-0.2,0.4-0.3,0.5C85.8,68,85.6,68.2,85.6,68.4z"/>
<g>
	<rect x="62.9" y="38" class="st5" width="49.8" height="49.8"/>
	<g>
		<path class="st6" d="M16.4,100h4.7c0.7,0,1.3,0.1,1.9,0.3c0.6,0.2,1.1,0.5,1.5,0.8c0.4,0.3,0.7,0.8,0.9,1.3
			c0.2,0.5,0.3,1.1,0.3,1.7v0c0,0.7-0.1,1.3-0.4,1.8c-0.3,0.5-0.6,0.9-1.1,1.3s-1,0.6-1.6,0.8s-1.2,0.3-1.9,0.3h-3v4.5h-1.4V100z
			 M20.9,106.9c0.5,0,1-0.1,1.4-0.2s0.8-0.3,1.1-0.6c0.3-0.2,0.5-0.5,0.7-0.9s0.2-0.7,0.2-1.2v0c0-0.9-0.3-1.6-0.9-2.1
			c-0.6-0.5-1.4-0.7-2.4-0.7h-3.2v5.6H20.9z"/>
		<path class="st6" d="M34.3,112.9c-0.8,0-1.5-0.1-2.1-0.4s-1.2-0.6-1.6-1.1c-0.5-0.5-0.8-1-1.1-1.7s-0.4-1.5-0.4-2.4V100h1.4v7.3
			c0,1.4,0.3,2.4,1,3.2c0.7,0.7,1.6,1.1,2.8,1.1c1.2,0,2.1-0.4,2.7-1.1c0.7-0.7,1-1.8,1-3.1V100h1.4v7.3c0,0.9-0.1,1.8-0.4,2.5
			c-0.2,0.7-0.6,1.3-1.1,1.8c-0.5,0.5-1,0.8-1.6,1.1S35,112.9,34.3,112.9z"/>
		<path class="st6" d="M49.5,112.9c-1,0-1.9-0.2-2.6-0.5s-1.4-0.8-2-1.4c-0.6-0.6-1-1.3-1.3-2.1s-0.4-1.6-0.4-2.6v0
			c0-0.9,0.2-1.7,0.5-2.5c0.3-0.8,0.7-1.5,1.3-2.1c0.5-0.6,1.2-1.1,2-1.4c0.8-0.4,1.6-0.5,2.6-0.5c0.5,0,1,0,1.4,0.1
			c0.4,0.1,0.8,0.2,1.2,0.3c0.4,0.1,0.7,0.3,1.1,0.5c0.3,0.2,0.6,0.5,1,0.7l-0.9,1.1c-0.2-0.2-0.5-0.4-0.7-0.6
			c-0.3-0.2-0.5-0.3-0.8-0.5c-0.3-0.1-0.6-0.2-1-0.3c-0.4-0.1-0.8-0.1-1.2-0.1c-0.7,0-1.3,0.1-1.9,0.4s-1.1,0.7-1.5,1.1
			c-0.4,0.5-0.7,1-1,1.7c-0.2,0.6-0.4,1.3-0.4,2v0c0,0.8,0.1,1.5,0.3,2.1c0.2,0.6,0.6,1.2,1,1.7c0.4,0.5,0.9,0.8,1.5,1.1
			s1.3,0.4,2,0.4c0.7,0,1.4-0.1,2-0.4c0.6-0.2,1.2-0.5,1.6-0.9v-3.2h-3.8v-1.3h5.1v5.1c-0.6,0.5-1.3,1-2.1,1.4
			C51.5,112.7,50.6,112.9,49.5,112.9z"/>
		<path class="st6" d="M58.7,100h9v1.3h-7.6v4.4h6.8v1.3h-6.8v4.5h7.7v1.3h-9.1V100z"/>
		<path class="st6" d="M74.8,101.3h-4.2V100h9.8v1.3h-4.2v11.4h-1.4V101.3z"/>
		<path class="st6" d="M94.6,112.9c-1,0-1.9-0.2-2.7-0.5c-0.8-0.3-1.6-0.8-2.4-1.5l0.9-1.1c0.7,0.6,1.3,1.1,2,1.4
			c0.7,0.3,1.4,0.4,2.3,0.4c0.8,0,1.5-0.2,2-0.6c0.5-0.4,0.8-0.9,0.8-1.6v0c0-0.3,0-0.6-0.1-0.8c-0.1-0.2-0.3-0.5-0.5-0.6
			s-0.6-0.4-1-0.5c-0.4-0.2-1-0.3-1.6-0.5c-0.7-0.2-1.3-0.3-1.9-0.5c-0.5-0.2-1-0.5-1.3-0.7c-0.3-0.3-0.6-0.6-0.8-1
			c-0.2-0.4-0.2-0.8-0.2-1.4v0c0-0.5,0.1-1,0.3-1.4c0.2-0.4,0.5-0.8,0.9-1.1s0.8-0.6,1.3-0.7s1-0.3,1.6-0.3c0.9,0,1.7,0.1,2.4,0.4
			c0.7,0.3,1.3,0.7,2,1.2l-0.8,1.1c-0.6-0.5-1.2-0.8-1.8-1.1c-0.6-0.2-1.2-0.3-1.8-0.3c-0.8,0-1.5,0.2-1.9,0.6
			c-0.5,0.4-0.7,0.9-0.7,1.5v0c0,0.3,0,0.6,0.1,0.8c0.1,0.2,0.3,0.5,0.5,0.7c0.2,0.2,0.6,0.4,1,0.5c0.4,0.2,1,0.3,1.7,0.5
			c1.4,0.3,2.4,0.8,3.1,1.3c0.7,0.6,1,1.3,1,2.3v0c0,0.5-0.1,1-0.3,1.5c-0.2,0.4-0.5,0.8-0.9,1.1c-0.4,0.3-0.8,0.6-1.3,0.7
			S95.2,112.9,94.6,112.9z"/>
		<path class="st6" d="M108.5,112.9c-1,0-1.8-0.2-2.6-0.5c-0.8-0.4-1.4-0.8-2-1.4c-0.6-0.6-1-1.3-1.3-2.1c-0.3-0.8-0.5-1.6-0.5-2.5
			v0c0-0.9,0.2-1.7,0.5-2.5c0.3-0.8,0.7-1.5,1.3-2.1c0.6-0.6,1.2-1.1,2-1.4c0.8-0.4,1.7-0.5,2.6-0.5s1.8,0.2,2.6,0.5
			c0.8,0.4,1.4,0.8,2,1.4s1,1.3,1.3,2.1c0.3,0.8,0.5,1.6,0.5,2.5c0,0,0,0,0,0c0,0.9-0.2,1.7-0.5,2.5c-0.3,0.8-0.7,1.5-1.3,2.1
			c-0.6,0.6-1.2,1.1-2,1.4S109.4,112.9,108.5,112.9z M108.5,111.6c0.7,0,1.4-0.1,2-0.4c0.6-0.3,1.1-0.6,1.5-1.1c0.4-0.5,0.8-1,1-1.7
			s0.4-1.3,0.4-2v0c0-0.7-0.1-1.4-0.4-2s-0.6-1.2-1-1.7c-0.4-0.5-1-0.8-1.6-1.1c-0.6-0.3-1.3-0.4-2-0.4c-0.7,0-1.4,0.1-2,0.4
			c-0.6,0.3-1.1,0.6-1.5,1.1c-0.4,0.5-0.8,1-1,1.7c-0.2,0.6-0.4,1.3-0.4,2v0c0,0.7,0.1,1.4,0.4,2c0.2,0.6,0.6,1.2,1,1.7
			c0.4,0.5,1,0.8,1.6,1.1S107.8,111.6,108.5,111.6z"/>
		<path class="st6" d="M123.7,112.9c-0.8,0-1.5-0.1-2.1-0.4s-1.2-0.6-1.6-1.1c-0.5-0.5-0.8-1-1.1-1.7s-0.4-1.5-0.4-2.4V100h1.4v7.3
			c0,1.4,0.3,2.4,1,3.2c0.7,0.7,1.6,1.1,2.8,1.1c1.2,0,2.1-0.4,2.7-1.1c0.7-0.7,1-1.8,1-3.1V100h1.4v7.3c0,0.9-0.1,1.8-0.4,2.5
			c-0.2,0.7-0.6,1.3-1.1,1.8c-0.5,0.5-1,0.8-1.6,1.1S124.5,112.9,123.7,112.9z"/>
		<path class="st6" d="M133.2,100h1.3l7.9,10.2V100h1.4v12.7h-1.1l-8.1-10.4v10.4h-1.4V100z"/>
		<path class="st6" d="M148.2,100h4.3c1,0,1.9,0.2,2.7,0.5s1.5,0.8,2.1,1.3s1,1.2,1.4,2c0.3,0.8,0.5,1.6,0.5,2.5v0
			c0,0.9-0.2,1.7-0.5,2.5c-0.3,0.8-0.8,1.5-1.4,2c-0.6,0.6-1.3,1-2.1,1.3c-0.8,0.3-1.7,0.5-2.7,0.5h-4.3V100z M152.6,111.4
			c0.8,0,1.5-0.1,2.1-0.4c0.6-0.3,1.2-0.6,1.6-1.1c0.4-0.4,0.8-1,1-1.6c0.2-0.6,0.4-1.3,0.4-2v0c0-0.7-0.1-1.4-0.4-2
			c-0.2-0.6-0.6-1.1-1-1.6s-1-0.8-1.6-1.1c-0.6-0.3-1.4-0.4-2.1-0.4h-2.9v10.1H152.6z"/>
	</g>
	<g>
		<path class="st6" d="M36.7,120.8h1.5v2.8h2.8v-2.8h1.5v6.9h-1.5V125h-2.8v2.8h-1.5V120.8z"/>
		<path class="st6" d="M50.9,127.9c-0.5,0-1-0.1-1.4-0.3c-0.4-0.2-0.8-0.4-1.1-0.8c-0.3-0.3-0.6-0.7-0.7-1.1
			c-0.2-0.4-0.3-0.9-0.3-1.4v0c0-0.5,0.1-1,0.3-1.4c0.2-0.4,0.4-0.8,0.8-1.1c0.3-0.3,0.7-0.6,1.1-0.8c0.4-0.2,0.9-0.3,1.5-0.3
			c0.5,0,1,0.1,1.4,0.3c0.4,0.2,0.8,0.4,1.1,0.8c0.3,0.3,0.6,0.7,0.7,1.1c0.2,0.4,0.3,0.9,0.3,1.4v0c0,0.5-0.1,1-0.3,1.4
			c-0.2,0.4-0.4,0.8-0.8,1.1c-0.3,0.3-0.7,0.6-1.1,0.8C51.9,127.8,51.4,127.9,50.9,127.9z M50.9,126.5c0.3,0,0.6-0.1,0.8-0.2
			c0.3-0.1,0.5-0.3,0.6-0.5c0.2-0.2,0.3-0.4,0.4-0.7c0.1-0.3,0.2-0.5,0.2-0.8v0c0-0.3-0.1-0.6-0.2-0.8s-0.2-0.5-0.4-0.7
			c-0.2-0.2-0.4-0.4-0.7-0.5c-0.3-0.1-0.5-0.2-0.8-0.2c-0.3,0-0.6,0.1-0.8,0.2c-0.2,0.1-0.5,0.3-0.6,0.5c-0.2,0.2-0.3,0.4-0.4,0.7
			c-0.1,0.3-0.2,0.5-0.2,0.8v0c0,0.3,0.1,0.6,0.2,0.8c0.1,0.3,0.2,0.5,0.4,0.7c0.2,0.2,0.4,0.4,0.7,0.5
			C50.3,126.4,50.6,126.5,50.9,126.5z"/>
		<path class="st6" d="M61.8,127.8c-0.5,0-1-0.1-1.5-0.3c-0.5-0.2-1-0.5-1.4-0.8l0.9-1.1c0.3,0.3,0.6,0.5,1,0.6s0.7,0.2,1.1,0.2
			c0.3,0,0.6-0.1,0.7-0.2c0.2-0.1,0.3-0.3,0.3-0.5v0c0-0.1,0-0.2-0.1-0.3c0-0.1-0.1-0.1-0.2-0.2c-0.1-0.1-0.2-0.1-0.4-0.2
			s-0.4-0.1-0.7-0.2c-0.3-0.1-0.7-0.2-0.9-0.3c-0.3-0.1-0.5-0.2-0.7-0.4c-0.2-0.2-0.3-0.3-0.5-0.6c-0.1-0.2-0.2-0.5-0.2-0.9v0
			c0-0.3,0.1-0.6,0.2-0.9c0.1-0.3,0.3-0.5,0.5-0.7c0.2-0.2,0.5-0.3,0.8-0.4c0.3-0.1,0.6-0.1,1-0.1c0.5,0,1,0.1,1.4,0.2
			s0.8,0.4,1.2,0.7l-0.8,1.2c-0.3-0.2-0.6-0.4-0.9-0.5c-0.3-0.1-0.6-0.2-0.9-0.2c-0.3,0-0.5,0.1-0.7,0.2c-0.1,0.1-0.2,0.3-0.2,0.4v0
			c0,0.1,0,0.2,0.1,0.3c0,0.1,0.1,0.2,0.2,0.2c0.1,0.1,0.3,0.1,0.5,0.2s0.4,0.1,0.7,0.2c0.3,0.1,0.7,0.2,0.9,0.3
			c0.3,0.1,0.5,0.3,0.7,0.4c0.2,0.2,0.3,0.4,0.4,0.6c0.1,0.2,0.1,0.5,0.1,0.8v0c0,0.3-0.1,0.7-0.2,0.9c-0.1,0.3-0.3,0.5-0.5,0.7
			c-0.2,0.2-0.5,0.3-0.8,0.4C62.5,127.8,62.1,127.8,61.8,127.8z"/>
		<path class="st6" d="M69.1,120.8h2.8c0.4,0,0.8,0.1,1.1,0.2c0.3,0.1,0.6,0.3,0.8,0.5s0.4,0.5,0.5,0.8c0.1,0.3,0.2,0.6,0.2,1v0
			c0,0.4-0.1,0.8-0.2,1.1c-0.1,0.3-0.3,0.6-0.6,0.8c-0.2,0.2-0.5,0.4-0.9,0.5c-0.3,0.1-0.7,0.2-1.1,0.2h-1.1v2.1h-1.5V120.8z
			 M71.7,124.3c0.4,0,0.7-0.1,0.9-0.3c0.2-0.2,0.3-0.5,0.3-0.8v0c0-0.3-0.1-0.6-0.3-0.8c-0.2-0.2-0.5-0.3-0.9-0.3h-1.2v2.1H71.7z"/>
		<path class="st6" d="M79.1,120.8h1.5v6.9h-1.5V120.8z"/>
		<path class="st6" d="M87.4,122.2h-2.1v-1.4H91v1.4h-2.1v5.5h-1.5V122.2z"/>
		<path class="st6" d="M98,120.8h1.4l2.9,7h-1.6l-0.6-1.6h-2.9l-0.6,1.6h-1.5L98,120.8z M99.6,124.8l-0.9-2.3l-0.9,2.3H99.6z"/>
		<path class="st6" d="M106.8,120.8h1.5v5.6h3.4v1.4h-4.9V120.8z"/>
		<path class="st6" d="M116.4,120.8h1.5v6.9h-1.5V120.8z"/>
		<path class="st6" d="M124.7,122.2h-2.1v-1.4h5.6v1.4h-2.1v5.5h-1.5V122.2z"/>
		<path class="st6" d="M134.9,125l-2.6-4.2h1.8l1.6,2.8l1.7-2.8h1.7l-2.6,4.2v2.8h-1.5V125z"/>
	</g>
</g>
</svg>
